<?xml version="1.0" encoding="UTF-8" standalone="no"?>
<!-- Created with Inkscape (http://www.inkscape.org/) -->

<svg
   width="100mm"
   height="100mm"
   viewBox="0 0 100 100"
   version="1.1"
   id="svg5"
   inkscape:version="1.1.1 (3bf5ae0d25, 2021-09-20)"
   sodipodi:docname="settings.svg"
   inkscape:export-filename="C:\Users\nickm\git\Spriggan\img\SettingsIcon.png"
   inkscape:export-xdpi="16.256001"
   inkscape:export-ydpi="16.256001"
   xmlns:inkscape="http://www.inkscape.org/namespaces/inkscape"
   xmlns:sodipodi="http://sodipodi.sourceforge.net/DTD/sodipodi-0.dtd"
   xmlns="http://www.w3.org/2000/svg"
   xmlns:svg="http://www.w3.org/2000/svg">
  <sodipodi:namedview
     id="namedview7"
     pagecolor="#505050"
     bordercolor="#ffffff"
     borderopacity="1"
     inkscape:pageshadow="0"
     inkscape:pageopacity="0"
     inkscape:pagecheckerboard="false"
     inkscape:document-units="mm"
     showgrid="false"
     inkscape:zoom="2.8284272"
     inkscape:cx="23.688077"
     inkscape:cy="233.34524"
     inkscape:window-width="3840"
     inkscape:window-height="2066"
     inkscape:window-x="-11"
     inkscape:window-y="-11"
     inkscape:window-maximized="1"
     inkscape:current-layer="layer1" />
  <defs
     id="defs2">
    <marker
       style="overflow:visible"
       id="Arrow2Lstart"
       refX="0.0"
       refY="0.0"
       orient="auto"
       inkscape:stockid="Arrow2Lstart"
       inkscape:isstock="true">
      <path
         transform="scale(1.1) translate(1,0)"
         d="M 8.7185878,4.0337352 L -2.2072895,0.016013256 L 8.7185884,-4.0017078 C 6.9730900,-1.6296469 6.9831476,1.6157441 8.7185878,4.0337352 z "
         style="stroke:context-stroke;fill-rule:evenodd;fill:context-stroke;stroke-width:0.62500000;stroke-linejoin:round"
         id="path10025" />
    </marker>
    <marker
       style="overflow:visible"
       id="Arrow1Lstart"
       refX="0.0"
       refY="0.0"
       orient="auto"
       inkscape:stockid="Arrow1Lstart"
       inkscape:isstock="true">
      <path
         transform="scale(0.8) translate(12.5,0)"
         style="fill-rule:evenodd;fill:context-stroke;stroke:context-stroke;stroke-width:1.0pt"
         d="M 0.0,0.0 L 5.0,-5.0 L -12.5,0.0 L 5.0,5.0 L 0.0,0.0 z "
         id="path5386" />
    </marker>
  </defs>
  <g
     inkscape:label="Layer 1"
     inkscape:groupmode="layer"
     id="layer1">
    <path
       style="fill:none;stroke:#000000;stroke-width:2;stroke-linecap:round;stroke-linejoin:round;stroke-miterlimit:4;stroke-dasharray:none;stroke-opacity:1;paint-order:markers fill stroke"
       id="path945"
       sodipodi:type="arc"
       sodipodi:cx="29.115969"
       sodipodi:cy="64.723877"
       sodipodi:rx="17.290689"
       sodipodi:ry="17.290689"
       sodipodi:start="1.538389"
       sodipodi:end="1.5317694"
       sodipodi:arc-type="arc"
       d="M 29.676216,82.005488 A 17.290689,17.290689 0 0 1 11.835309,65.312722 17.290689,17.290689 0 0 1 28.498526,47.444215 17.290689,17.290689 0 0 1 46.394585,64.077839 17.290689,17.290689 0 0 1 29.7906,82.0014"
       sodipodi:open="true"
       inkscape:export-filename="C:\Users\nickm\git\Spriggan\img\PlayIcon.png"
       inkscape:export-xdpi="23.851141"
       inkscape:export-ydpi="23.851141"
       transform="rotate(-20.144343)" />
    <path
       id="path14536"
       style="fill:none;stroke:#000000;stroke-width:3;stroke-linecap:butt;stroke-linejoin:round;stroke-miterlimit:4;stroke-dasharray:none;stroke-opacity:1"
       d="m 48.971079,78.436629 4.210596,0.01033 4.964556,7.294128 9.115722,-3.253031 -0.660943,-8.989115 5.287535,-5.017265 8.628413,0.776182 3.860745,-8.49354 -6.465297,-5.100202 5.65e-4,-5.185221"
       sodipodi:nodetypes="cccccccccc" />
    <path
       id="path16388"
       style="fill:none;stroke:#000000;stroke-width:3;stroke-linecap:butt;stroke-linejoin:round;stroke-miterlimit:4;stroke-dasharray:none;stroke-opacity:1"
       d="m 49.869371,78.436629 -4.210596,0.01033 -4.964556,7.294128 -9.115722,-3.253031 0.660943,-8.989115 -5.287535,-5.017265 -8.628413,0.776182 -3.860745,-8.49354 6.465297,-5.100202 -5.65e-4,-5.185221"
       sodipodi:nodetypes="cccccccccc" />
    <path
       id="path17519"
       style="fill:none;stroke:#000000;stroke-width:3;stroke-linecap:butt;stroke-linejoin:round;stroke-miterlimit:4;stroke-dasharray:none;stroke-opacity:1"
       d="m 49.017851,23.408907 4.210596,-0.01033 4.964556,-7.294128 9.115722,3.253031 -0.660943,8.989115 5.287535,5.017265 8.628413,-0.776182 3.860745,8.49354 -6.465297,5.100202 5.65e-4,5.185221"
       sodipodi:nodetypes="cccccccccc" />
    <path
       id="path17521"
       style="fill:none;stroke:#000000;stroke-width:3;stroke-linecap:butt;stroke-linejoin:round;stroke-miterlimit:4;stroke-dasharray:none;stroke-opacity:1"
       d="m 49.916143,23.408907 -4.210596,-0.01033 -4.964556,-7.294128 -9.115722,3.253031 0.660943,8.989115 -5.287535,5.017265 -8.628413,-0.776182 -3.860745,8.49354 6.465297,5.100202 -5.65e-4,5.185221"
       sodipodi:nodetypes="cccccccccc" />
  </g>
</svg>
