<?xml version="1.0" encoding="UTF-8" standalone="no"?>
<!-- Created with Inkscape (http://www.inkscape.org/) -->

<svg
   width="100mm"
   height="100mm"
   viewBox="0 0 100 100"
   version="1.1"
   id="svg5"
   inkscape:version="1.1.1 (3bf5ae0d25, 2021-09-20)"
   sodipodi:docname="UpdatingIcon.svg"
   inkscape:export-filename="C:\Users\nickm\git\Spriggan\img\UpdatingIcon.png"
   inkscape:export-xdpi="16.256001"
   inkscape:export-ydpi="16.256001"
   xmlns:inkscape="http://www.inkscape.org/namespaces/inkscape"
   xmlns:sodipodi="http://sodipodi.sourceforge.net/DTD/sodipodi-0.dtd"
   xmlns="http://www.w3.org/2000/svg"
   xmlns:svg="http://www.w3.org/2000/svg">
  <sodipodi:namedview
     id="namedview7"
     pagecolor="#505050"
     bordercolor="#ffffff"
     borderopacity="1"
     inkscape:pageshadow="0"
     inkscape:pageopacity="0"
     inkscape:pagecheckerboard="false"
     inkscape:document-units="mm"
     showgrid="false"
     inkscape:zoom="2.8284271"
     inkscape:cx="-20.506097"
     inkscape:cy="174.65537"
     inkscape:window-width="3840"
     inkscape:window-height="2066"
     inkscape:window-x="-11"
     inkscape:window-y="-11"
     inkscape:window-maximized="1"
     inkscape:current-layer="layer1" />
  <defs
     id="defs2">
    <marker
       style="overflow:visible"
       id="Arrow2Lstart"
       refX="0.0"
       refY="0.0"
       orient="auto"
       inkscape:stockid="Arrow2Lstart"
       inkscape:isstock="true">
      <path
         transform="scale(1.1) translate(1,0)"
         d="M 8.7185878,4.0337352 L -2.2072895,0.016013256 L 8.7185884,-4.0017078 C 6.9730900,-1.6296469 6.9831476,1.6157441 8.7185878,4.0337352 z "
         style="stroke:context-stroke;fill-rule:evenodd;fill:context-stroke;stroke-width:0.62500000;stroke-linejoin:round"
         id="path10025" />
    </marker>
    <marker
       style="overflow:visible"
       id="Arrow1Lstart"
       refX="0.0"
       refY="0.0"
       orient="auto"
       inkscape:stockid="Arrow1Lstart"
       inkscape:isstock="true">
      <path
         transform="scale(0.8) translate(12.5,0)"
         style="fill-rule:evenodd;fill:context-stroke;stroke:context-stroke;stroke-width:1.0pt"
         d="M 0.0,0.0 L 5.0,-5.0 L -12.5,0.0 L 5.0,5.0 L 0.0,0.0 z "
         id="path5386" />
    </marker>
  </defs>
  <g
     inkscape:label="Layer 1"
     inkscape:groupmode="layer"
     id="layer1">
    <path
       style="fill:none;stroke:#000000;stroke-width:2;stroke-linecap:round;stroke-linejoin:round;stroke-miterlimit:4;stroke-dasharray:none;stroke-opacity:1;paint-order:markers fill stroke"
       id="path945"
       sodipodi:type="arc"
       sodipodi:cx="29.724934"
       sodipodi:cy="64.150185"
       sodipodi:rx="6.5422759"
       sodipodi:ry="6.5422759"
       sodipodi:start="1.538389"
       sodipodi:end="1.5317694"
       sodipodi:arc-type="arc"
       d="m 29.936914,70.689025 a 6.5422759,6.5422759 0 0 1 -6.750461,-6.316039 6.5422759,6.5422759 0 0 1 6.304859,-6.760905 6.5422759,6.5422759 0 0 1 6.771329,6.293662 6.5422759,6.5422759 0 0 1 -6.282447,6.781736"
       sodipodi:open="true"
       inkscape:export-filename="C:\Users\nickm\git\Spriggan\img\PlayIcon.png"
       inkscape:export-xdpi="23.851141"
       inkscape:export-ydpi="23.851141"
       transform="rotate(-20.144343)" />
    <path
       style="fill:none;stroke:#000000;stroke-width:2;stroke-linecap:round;stroke-linejoin:round;stroke-miterlimit:4;stroke-dasharray:none;stroke-opacity:1;paint-order:markers fill stroke"
       id="path945-6"
       sodipodi:type="arc"
       sodipodi:cx="29.768204"
       sodipodi:cy="64.148643"
       sodipodi:rx="18.017372"
       sodipodi:ry="18.017372"
       sodipodi:start="1.6428672"
       sodipodi:end="3.873756"
       sodipodi:arc-type="arc"
       sodipodi:open="true"
       inkscape:export-filename="C:\Users\nickm\git\Spriggan\img\PlayIcon.png"
       inkscape:export-xdpi="23.851141"
       inkscape:export-ydpi="23.851141"
       d="M 28.4708,82.119243 A 18.017372,18.017372 0 0 1 13.058125,70.886518 18.017372,18.017372 0 0 1 16.368144,52.104388"
       transform="rotate(-20.144343)" />
    <path
       style="fill:none;stroke:#000000;stroke-width:2;stroke-linecap:round;stroke-linejoin:round;stroke-miterlimit:4;stroke-dasharray:none;stroke-opacity:1;paint-order:markers fill stroke"
       id="path945-6-2"
       sodipodi:type="arc"
       sodipodi:cx="29.768204"
       sodipodi:cy="64.148643"
       sodipodi:rx="18.017372"
       sodipodi:ry="18.017372"
       sodipodi:start="4.710717"
       sodipodi:end="0.72952519"
       sodipodi:arc-type="arc"
       sodipodi:open="true"
       inkscape:export-filename="C:\Users\nickm\git\Spriggan\img\PlayIcon.png"
       inkscape:export-xdpi="23.851141"
       inkscape:export-ydpi="23.851141"
       d="M 29.738079,46.131297 A 18.017372,18.017372 0 0 1 46.208838,56.77767 18.017372,18.017372 0 0 1 43.199992,76.157506"
       transform="rotate(-20.144343)" />
    <path
       style="fill:none;stroke:#000000;stroke-width:3;stroke-linecap:butt;stroke-linejoin:round;stroke-miterlimit:4;stroke-dasharray:none;stroke-opacity:1"
       d="m 33.907459,27.211946 -2.504687,-6.827999 13.657524,-5.009932 2.503221,6.824004 7.167834,0.307339 3.057043,-6.599205 13.199886,6.114771 -3.055256,6.595344 5.628582,5.008414 6.062218,-2.223779 5.005997,13.646796 -6.146854,2.254825 -0.243987,7.771855 5.859084,2.714186 -6.109969,13.189519 -5.940884,-2.752081 -5.668056,5.323005 2.223779,6.062218 -13.646797,5.005998 -2.254825,-6.146854 -7.774255,-0.238803 -2.714186,5.859084 -13.18952,-6.109969 2.752081,-5.940884 -4.550889,-5.943421 -6.827999,2.504687 -5.009933,-13.657526 6.824004,-2.503221 0.302156,-7.170232 -6.599204,-3.057043 6.114771,-13.199887 6.595343,3.055257 5.283778,-4.856466 -2.504687,-6.827999"
       id="path8912"
       sodipodi:nodetypes="cccccccccccccccccccccccccccccccccc" />
    <path
       style="fill:#000000;fill-opacity:1;stroke:#000000;stroke-width:2.15567;stroke-linecap:butt;stroke-linejoin:round;stroke-miterlimit:4;stroke-dasharray:none;stroke-opacity:1"
       d="m 49.583716,63.56504 5.426218,3.725851 -4.78147,5.287776 z"
       id="path10465"
       sodipodi:nodetypes="cccc" />
    <path
       style="fill:#000000;fill-opacity:1;stroke:#000000;stroke-width:2.02502;stroke-linecap:butt;stroke-linejoin:round;stroke-miterlimit:4;stroke-dasharray:none;stroke-opacity:1"
       d="m 49.879275,36.141238 -6.073342,-3.073272 4.508943,-4.544299 z"
       id="path10465-6"
       sodipodi:nodetypes="cccc" />
  </g>
</svg>
